<svg width="62" height="81" viewBox="0 0 62 81" fill="none" xmlns="http://www.w3.org/2000/svg">
<path d="M2.48905 69.7645V9.69256H36.5284V17.0887H39.0175V5.38006C39.0175 2.86777 36.9949 0.845154 34.4826 0.845154H4.53491C2.02262 0.845154 0 2.86777 0 5.38006V75.5838C0 78.0961 2.02262 80.1187 4.53491 80.1187H34.4826C36.9949 80.1187 39.0175 78.0961 39.0175 75.5838V69.7645H2.48905ZM31.2221 3.21671C31.2221 2.79094 31.5671 2.44588 31.9932 2.44588C32.419 2.44588 32.7644 2.79094 32.7644 3.21671C32.7644 3.64247 32.4193 3.98786 31.9935 3.98786C31.5671 3.98753 31.2221 3.64247 31.2221 3.21671ZM13.526 4.4133H25.4915C25.8134 4.4133 26.0726 4.66507 26.0726 4.97818C26.0726 5.29097 25.8134 5.54307 25.4915 5.54307H13.526C13.2041 5.54307 12.9449 5.29129 12.9449 4.97818C12.9449 4.6654 13.2041 4.4133 13.526 4.4133ZM22.9153 74.9911C22.9153 76.1861 21.9466 77.1548 20.7517 77.1548H18.2658C17.0709 77.1548 16.1022 76.1861 16.1022 74.9911C16.1022 73.7962 17.0709 72.8275 18.2658 72.8275H20.7517C21.9466 72.8275 22.9153 73.7962 22.9153 74.9911Z" fill="#205A41"/>
<path d="M61.2807 64.4436L51.341 58.7047V61.1934H32.6094V67.6935H51.341V70.1822L61.2807 64.4436Z" fill="#205A41"/>
<path d="M45.2374 19.3289H26.5061V16.8402L16.5664 22.5788L26.5061 28.3177V25.829H45.2374V19.3289Z" fill="#205A41"/>
<path d="M3.53516 29.1324V30.1298H52.3801V54.3389H53.3775V29.1324H3.53516Z" fill="#205A41"/>
<path d="M3.53516 30.8177V31.8151H50.6512V55.7941H51.6486V30.8177H3.53516Z" fill="#205A41"/>
<path d="M3.53516 32.5101V33.5075H48.9778V57.2495H49.9752V32.5101H3.53516Z" fill="#205A41"/>
<path d="M3.53516 34.2232V36.5218H42.2883C42.2463 36.7139 42.224 36.913 42.224 37.117C42.224 38.7152 43.5752 40.0109 45.2421 40.0109C45.4549 40.0109 45.6624 39.9896 45.8629 39.9492V52.9784C45.6624 52.9384 45.4549 52.9167 45.2421 52.9167C43.5752 52.9167 42.224 54.2124 42.224 55.8106C42.224 56.0146 42.2463 56.2137 42.2883 56.4058H3.53516V58.7044H48.2603V34.2229H3.53516V34.2232Z" fill="#205A41"/>
<path d="M7.48934 48.4125C8.67486 48.4125 9.63591 47.4514 9.63591 46.2659C9.63591 45.0804 8.67486 44.1193 7.48934 44.1193C6.30382 44.1193 5.34277 45.0804 5.34277 46.2659C5.34277 47.4514 6.30382 48.4125 7.48934 48.4125Z" fill="#205A41"/>
<path d="M38.1788 48.4125C39.3643 48.4125 40.3254 47.4514 40.3254 46.2659C40.3254 45.0804 39.3643 44.1193 38.1788 44.1193C36.9933 44.1193 36.0322 45.0804 36.0322 46.2659C36.0322 47.4514 36.9933 48.4125 38.1788 48.4125Z" fill="#205A41"/>
<path d="M22.8352 36.9847C17.9142 36.9847 13.9248 41.2288 13.9248 46.4638C13.9248 51.6988 17.9142 55.9429 22.8352 55.9429C27.7561 55.9429 31.7455 51.6988 31.7455 46.4638C31.7455 41.2288 27.7561 36.9847 22.8352 36.9847Z" fill="#205A41"/>
</svg>
