<svg width="70" height="83" viewBox="0 0 70 83" fill="none" xmlns="http://www.w3.org/2000/svg">
<path d="M51.8946 61.0523C56.8361 61.0523 60.842 57.0464 60.842 52.105C60.842 47.1635 56.8361 43.1576 51.8946 43.1576C46.9531 43.1576 42.9473 47.1635 42.9473 52.105C42.9473 57.0464 46.9531 61.0523 51.8946 61.0523Z" stroke="#205A41" stroke-width="3.58159" stroke-miterlimit="10"/>
<path d="M35.79 82.5267V77.1583C35.79 74.7853 36.7327 72.5095 38.4107 70.8315C40.0886 69.1536 42.3644 68.2109 44.7374 68.2109H59.0532C61.4262 68.2109 63.702 69.1536 65.3799 70.8315C67.0579 72.5095 68.0005 74.7853 68.0005 77.1583V82.5267" stroke="#205A41" stroke-width="3.58159" stroke-miterlimit="10"/>
<path d="M28.6315 73.579H0" stroke="#205A41" stroke-width="3.58159" stroke-miterlimit="10"/>
<path d="M57.2634 37.79V10.948H7.1582V73.5795" stroke="#205A41" stroke-width="3.58159" stroke-miterlimit="10"/>
<path d="M16.1055 23.4734H28.6318" stroke="#205A41" stroke-width="3.58159" stroke-miterlimit="10"/>
<path d="M35.79 23.4734H48.3163" stroke="#205A41" stroke-width="3.58159" stroke-miterlimit="10"/>
<path d="M16.1055 36.0001H28.6318" stroke="#205A41" stroke-width="3.58159" stroke-miterlimit="10"/>
<path d="M16.1055 48.5256H28.6318" stroke="#205A41" stroke-width="3.58159" stroke-miterlimit="10"/>
<path d="M16.1055 10.9474V2H48.316V10.9474" stroke="#205A41" stroke-width="3.58159" stroke-miterlimit="10"/>
<path d="M16.1055 61.0523H28.6318" stroke="#205A41" stroke-width="3.58159" stroke-miterlimit="10"/>
<path d="M35.79 36.0001H48.3163" stroke="#205A41" stroke-width="3.58159" stroke-miterlimit="10"/>
</svg>
