<svg width="84" height="83" viewBox="0 0 84 83" fill="none" xmlns="http://www.w3.org/2000/svg">
<path d="M81.7935 0.92572H75.3436C74.6409 0.92572 74.0725 1.49417 74.0725 2.19684V3.30522H53.1144C51.0812 3.30522 49.1745 4.20755 47.8859 5.78035L41.9971 12.9712C41.976 12.9974 41.9709 13.0296 41.9511 13.0567H7.29358C6.59091 13.0567 6.02246 13.6252 6.02246 14.3279V42.7634C6.02246 43.466 6.59091 44.0345 7.29358 44.0345H60.972C61.6747 44.0345 62.2431 43.466 62.2431 42.7634V29.8018H67.1736C69.3037 29.8018 71.2201 28.4465 71.9426 26.428C71.944 26.4257 71.9426 26.423 71.944 26.4206C71.9453 26.4183 71.9463 26.4156 71.9477 26.4133C72.0158 26.221 72.1896 25.9948 72.4554 25.9948H74.0728V27.976C74.0728 28.6787 74.6412 29.2471 75.3439 29.2471H81.7938C82.4965 29.2471 83.0649 28.6787 83.0649 27.976V2.19684C83.0646 1.49417 82.4962 0.92572 81.7935 0.92572ZM8.56471 41.4922V15.599H50.3393L46.8101 19.3056C45.4595 20.7231 45.0997 22.7217 45.8705 24.5203C46.6413 26.3203 48.3369 27.4387 50.2956 27.4387C51.5319 27.4387 52.7063 26.9706 53.5986 26.1253L57.8737 22.1174C58.2549 21.761 58.7489 21.565 59.269 21.5637L59.7009 21.5623V41.4926H8.56471V41.4922ZM72.4554 23.4526C71.147 23.4526 70.0074 24.2804 69.5521 25.5616C69.5507 25.5653 69.5497 25.5703 69.5484 25.5727C69.1873 26.5807 68.2326 27.2596 67.1739 27.2596H62.2434V21.5583L66.5397 21.5523C68.5531 21.5523 70.1903 19.915 70.1903 17.9016C70.1903 17.199 69.6219 16.6305 68.9192 16.6305C68.2165 16.6305 67.6481 17.199 67.6481 17.9016C67.6481 18.5124 67.1504 19.01 66.537 19.01L59.2643 19.0211C58.0989 19.0224 56.9878 19.463 56.1361 20.2623L51.856 24.2754C51.4329 24.675 50.8792 24.8962 50.2956 24.8962C49.3571 24.8962 48.5765 24.3811 48.2064 23.5197C47.8376 22.6569 48.0027 21.7372 48.6507 21.0583L59.1307 10.0531C59.615 9.54539 59.5948 8.7397 59.0861 8.25581C58.5797 7.77428 57.7754 7.79273 57.2888 8.30044L52.7593 13.0571H45.2121L49.852 7.39173C50.6564 6.40987 51.8456 5.84746 53.114 5.84746H74.0721V23.4526H72.4554ZM80.5224 26.7049H76.6147V3.46796H80.5224V26.7049Z" fill="#205A41"/>
<path d="M23.4949 27.2039C22.755 27.2039 22.1543 27.8045 22.1543 28.5458C22.1543 29.2867 22.755 29.8864 23.4949 29.8864C24.2358 29.8864 24.8368 29.2867 24.8368 28.5458C24.8368 27.8045 24.2361 27.2039 23.4949 27.2039Z" fill="#205A41"/>
<path d="M44.7726 27.2039C44.0317 27.2039 43.4307 27.8045 43.4307 28.5458C43.4307 29.2867 44.0313 29.8864 44.7726 29.8864C45.5135 29.8864 46.1132 29.2867 46.1132 28.5458C46.1132 27.8045 45.5139 27.2039 44.7726 27.2039Z" fill="#205A41"/>
<path d="M62.1645 46.815L54.2213 54.7591C53.3659 53.9649 52.2314 53.5115 50.9851 53.5115H31.029C26.1781 53.5115 21.5258 55.438 18.0947 58.8678L14.4377 62.5258L11.6994 59.7886C11.1968 59.2846 10.38 59.2846 9.87599 59.7886L0.949273 68.7163C0.446596 69.219 0.446596 70.0358 0.949273 70.5398C1.45329 71.0438 2.27006 71.0425 2.77408 70.5398L10.7891 62.5235L13.5263 65.2617L23.7496 75.4837L26.4868 78.2205L24.2996 80.4091C23.7956 80.9118 23.7956 81.7285 24.2996 82.2326C24.8023 82.7352 25.619 82.7352 26.1231 82.2326L29.2213 79.1329C29.7254 78.6289 29.7254 77.8135 29.2213 77.3095L26.4841 74.5726L27.9838 73.073C28.4643 72.5924 29.116 72.322 29.7948 72.322H46.3177C50.0452 72.322 53.6189 70.8425 56.2541 68.2069L70.0784 54.3826C72.3402 52.1209 72.2049 48.3562 69.6724 46.2744C67.4651 44.4603 64.1856 44.7955 62.1645 46.815ZM68.2543 52.5595L54.43 66.3838C52.2626 68.5512 49.3818 69.7438 46.317 69.7438H29.7941C28.4213 69.7438 27.1304 70.2787 26.1596 71.2495L24.66 72.7492L16.2615 64.3493L19.9185 60.6913C22.8865 57.7245 26.8324 56.0897 31.0294 56.0897H50.9854C51.9029 56.0897 52.6599 56.596 53.0112 57.444C53.3626 58.2906 53.1851 59.1842 52.5357 59.8336C52.1213 60.2483 51.57 60.4765 50.9854 60.4765H42.5433C41.8309 60.4765 41.2537 61.0537 41.2537 61.7661C41.2537 62.4775 41.8309 63.0547 42.5433 63.0547H50.9854C52.2602 63.0547 53.4582 62.558 54.3592 61.657C55.6028 60.4134 56.0525 58.6853 55.5931 57.0346L64.1604 48.466C65.2899 47.3378 67.1258 47.3378 68.2543 48.466C69.3828 49.5941 69.3828 51.4313 68.2543 52.5595Z" fill="#205A41"/>
<path d="M34.9085 27.0213V23.0479C35.5863 23.3261 36.0058 23.867 36.1672 24.674L38.7973 24.3388C38.6198 23.2949 38.1953 22.4768 37.5262 21.8848C36.8571 21.2915 35.9846 20.9301 34.9085 20.8023V19.7956H33.4088V20.8023C32.2568 20.9103 31.3112 21.3298 30.5699 22.0623C29.829 22.7935 29.4579 23.7418 29.4579 24.9073C29.4579 27.1901 30.775 28.6981 33.4088 29.4293V33.6883C33.029 33.5122 32.685 33.2253 32.3796 32.8293C32.0756 32.432 31.8669 31.9666 31.7578 31.4317L29.0381 31.7159C29.4539 34.3648 30.9099 35.8356 33.4088 36.1262V37.2943H34.9085V36.0752C36.2306 35.8927 37.2806 35.3913 38.0601 34.5719C38.8396 33.7514 39.2295 32.7051 39.2295 31.4313C39.2295 30.2867 38.8869 29.3411 38.2004 28.5961C37.6242 27.9733 36.5269 27.4485 34.9085 27.0213ZM33.4088 26.5334C32.5115 26.1536 32.0619 25.5579 32.0619 24.7448C32.0619 24.3589 32.1897 24.0063 32.4441 23.6885C32.6974 23.3694 33.0199 23.1459 33.4085 23.017V26.5334H33.4088ZM36.1732 33.1447C35.8393 33.5135 35.4172 33.7417 34.9085 33.8299V29.8666C36.0863 30.1991 36.6749 30.8461 36.6749 31.8078C36.6746 32.3293 36.5084 32.7749 36.1732 33.1447Z" fill="#205A41"/>
</svg>
