<svg width="83" height="84" viewBox="0 0 83 84" fill="none" xmlns="http://www.w3.org/2000/svg">
<path d="M67.4242 5.05522L73.9658 3.17331C74.6425 2.97996 75.0292 2.26458 74.8358 1.57497C74.6425 0.891815 73.94 0.492231 73.2439 0.698468L63.0546 3.61801C62.655 3.74046 62.3521 4.02404 62.2038 4.41073C62.062 4.79098 62.1072 5.20345 62.3198 5.55148L68.0042 14.5099C68.2491 14.8966 68.6745 15.1093 69.087 15.1093C69.3319 15.1093 69.5639 15.0448 69.783 14.9095C70.3889 14.5292 70.5629 13.7301 70.1762 13.1307L66.6057 7.49139C74.5587 10.1725 79.5986 16.1469 80.1335 23.8292C80.1787 24.5124 80.7458 25.028 81.4096 25.028C81.4483 25.028 81.4805 25.028 81.5128 25.028C82.2217 24.9829 82.7502 24.3577 82.7051 23.6488C82.0928 14.8708 76.4019 8.06499 67.4242 5.05522Z" fill="#205A41"/>
<path d="M14.9302 69.2722C14.55 68.66 13.7508 68.4924 13.1579 68.8726C12.552 69.2529 12.378 70.0456 12.7518 70.6514L16.3287 76.2843C8.36929 73.6096 3.33583 67.6352 2.8009 59.9465C2.74934 59.244 2.10485 58.6833 1.42169 58.7606C0.712752 58.8122 0.17138 59.418 0.216494 60.1269C0.835205 68.9178 6.51961 75.7107 15.5102 78.7333L8.96222 80.6088C8.27907 80.8086 7.88593 81.524 8.07927 82.2136C8.24684 82.7743 8.76243 83.1352 9.31669 83.1352C9.4327 83.1352 9.55516 83.1223 9.67761 83.0901L19.8734 80.1577C20.2601 80.0417 20.5759 79.7581 20.7177 79.3778C20.8595 78.9976 20.8208 78.5787 20.5953 78.2371L14.9302 69.2722Z" fill="#205A41"/>
<path d="M54.3605 83.1352C38.7252 83.1352 26.0029 70.4194 26.0029 54.7776C26.0029 39.1423 38.7252 26.42 54.3605 26.42C69.9894 26.42 82.7052 39.1423 82.7052 54.7776C82.7052 70.4194 69.9894 83.1352 54.3605 83.1352ZM54.3605 28.998C40.1366 28.998 28.5809 40.5666 28.5809 54.7776C28.5809 68.9951 40.1366 80.5572 54.3605 80.5572C68.5651 80.5572 80.1401 68.9951 80.1401 54.7776C80.1401 40.5666 68.5651 28.998 54.3605 28.998Z" fill="#205A41"/>
<path d="M54.36 75.4013C42.9848 75.4013 33.7363 66.1593 33.7363 54.7776C33.7363 43.4088 42.9848 34.1604 54.36 34.1604C65.7224 34.1604 74.9773 43.4088 74.9773 54.7776C74.9773 66.1593 65.7224 75.4013 54.36 75.4013ZM54.36 36.7319C44.4091 36.7319 36.3143 44.8267 36.3143 54.7776C36.3143 64.7285 44.4091 72.8298 54.36 72.8298C64.3045 72.8298 72.4057 64.7285 72.4057 54.7776C72.4057 44.8267 64.3045 36.7319 54.36 36.7319Z" fill="#205A41"/>
<path d="M53.1619 64.793C51.9825 64.6899 50.9127 64.3999 49.9459 63.9358C48.9792 63.4589 48.1478 62.8595 47.4453 62.1248L48.2187 60.9389C48.2832 60.8294 48.3798 60.7456 48.5087 60.6683C48.6312 60.6038 48.7665 60.5716 48.9083 60.5716C49.0888 60.5716 49.3079 60.6618 49.5399 60.8487C49.759 61.0356 50.0491 61.2419 50.3842 61.4803C50.7258 61.7188 51.1382 61.9508 51.6152 62.1764C52.0792 62.4019 52.6464 62.5437 53.3037 62.634L53.8451 54.8872C53.1748 54.6874 52.5046 54.4489 51.8407 54.1911C51.1898 53.9333 50.6033 53.5982 50.0877 53.1857C49.5657 52.7733 49.1468 52.2512 48.831 51.6196C48.5152 50.9945 48.354 50.2082 48.354 49.2608C48.354 48.5518 48.4958 47.8622 48.773 47.1855C49.0436 46.5024 49.4497 45.9094 49.9782 45.3874C50.5066 44.8525 51.1576 44.4207 51.931 44.0855C52.7172 43.7504 53.6131 43.5764 54.6185 43.5764L54.7667 41.4496C54.7861 41.2691 54.8634 41.1015 54.9794 40.9598C55.1147 40.8115 55.2823 40.7471 55.5014 40.7471H56.4617L56.2555 43.6279C57.2738 43.7504 58.1503 44.0146 58.8915 44.4207C59.6326 44.8074 60.2836 45.2907 60.8636 45.8643L60.2449 46.8182C60.0515 47.1082 59.826 47.25 59.5746 47.25C59.4393 47.25 59.2717 47.192 59.0784 47.0695C58.8721 46.9406 58.6337 46.8053 58.3501 46.6442C58.073 46.4895 57.7507 46.3219 57.3769 46.1608C57.0095 46.0061 56.5842 45.8965 56.1137 45.8192L55.6303 52.8764C56.3328 53.0891 57.016 53.3211 57.7056 53.5789C58.3759 53.8302 58.9946 54.1589 59.5359 54.5585C60.0773 54.9581 60.5156 55.4543 60.8507 56.0602C61.1858 56.6595 61.3599 57.4071 61.3599 58.303C61.3599 59.1795 61.2181 60.0109 60.9216 60.7778C60.6316 61.5512 60.2062 62.2279 59.6455 62.8144C59.0977 63.3945 58.4081 63.8714 57.596 64.2387C56.7775 64.5997 55.8559 64.7866 54.8183 64.7866L54.6507 67.3967C54.6249 67.5708 54.5476 67.7448 54.4251 67.8801C54.2834 68.0219 54.1222 68.0928 53.916 68.0928H52.9557L53.1619 64.793ZM50.8031 49.0094C50.8031 49.4799 50.8804 49.8795 51.0545 50.2275C51.2091 50.5755 51.4476 50.8849 51.7441 51.1363C52.0276 51.4005 52.3692 51.6261 52.7559 51.8194C53.149 52.0128 53.568 52.1868 54.032 52.3414L54.4638 45.7676C53.8387 45.8321 53.2908 45.9546 52.8333 46.1543C52.3692 46.3477 51.989 46.5862 51.6989 46.8826C51.4025 47.1726 51.1705 47.5078 51.0287 47.8687C50.8676 48.2296 50.8031 48.6163 50.8031 49.0094ZM58.8915 58.6961C58.8915 58.2063 58.8012 57.7874 58.6272 57.4394C58.4403 57.0913 58.1954 56.7884 57.8796 56.5435C57.5831 56.2793 57.2029 56.0666 56.7969 55.8797C56.3779 55.6928 55.9268 55.5317 55.4563 55.3706L54.9536 62.634C55.5852 62.576 56.1524 62.4406 56.6422 62.2086C57.1256 61.9895 57.538 61.7188 57.8732 61.3772C58.2083 61.0421 58.4532 60.6425 58.6272 60.1913C58.8077 59.7338 58.8915 59.2311 58.8915 58.6961Z" fill="#205A41"/>
<path d="M22.1736 53.9398C11.0626 51.0847 2.80023 41.0049 2.80023 28.998C2.80023 14.787 14.3624 3.21843 28.5798 3.21843C40.5738 3.21843 50.6601 11.4744 53.5216 22.6047C53.7987 22.5983 54.0759 22.5596 54.3594 22.5596C54.9781 22.5596 55.584 22.624 56.1962 22.6563C53.296 10.0694 42.0239 0.640472 28.5798 0.640472C12.9445 0.640472 0.21582 13.3627 0.21582 28.998C0.21582 42.455 9.63182 53.7207 22.2187 56.6144C22.1865 56.0086 22.1285 55.3964 22.1285 54.7776C22.1349 54.4941 22.1607 54.2234 22.1736 53.9398Z" fill="#205A41"/>
<path d="M10.5336 28.998C10.5336 19.0471 18.6284 10.9523 28.5793 10.9523C36.6999 10.9523 43.5831 16.3467 45.8323 23.739C46.6573 23.5134 47.4951 23.3072 48.3394 23.1461C45.813 14.6195 37.9116 8.37436 28.5793 8.37436C17.2041 8.37436 7.94922 17.6357 7.94922 28.998C7.94922 38.3367 14.1814 46.2317 22.708 48.7646C22.8692 47.9138 23.0754 47.0824 23.3074 46.251C15.9216 44.0018 10.5336 37.1186 10.5336 28.998Z" fill="#205A41"/>
<path d="M27.1871 35.2883C26.259 34.2893 25.6532 32.7941 25.389 30.7833H31.2989C31.5309 30.7833 31.7178 30.7124 31.8596 30.577C31.995 30.4417 32.0594 30.287 32.0594 30.1194V29.3074H25.2472C25.2472 29.1592 25.2343 29.0174 25.2343 28.8627C25.2343 28.7145 25.2343 28.5727 25.2343 28.418C25.2343 28.2118 25.2472 28.0184 25.2472 27.8122C25.2472 27.6188 25.2601 27.4255 25.2665 27.2321H32.6717C32.9037 27.2321 33.0906 27.1612 33.2195 27.0194C33.3484 26.8712 33.4129 26.723 33.4129 26.5425V25.7369H25.4405C25.7628 23.8743 26.3815 22.4629 27.316 21.4833C28.2569 20.5165 29.4364 20.0267 30.8542 20.0267C31.5825 20.0267 32.1819 20.1234 32.6459 20.2974C33.1293 20.4843 33.5095 20.6906 33.806 20.9161C34.1153 21.1353 34.3474 21.3415 34.5278 21.5219C34.7083 21.7088 34.8887 21.8055 35.0499 21.8055C35.1916 21.8055 35.2948 21.7733 35.3721 21.7088C35.4494 21.6444 35.5268 21.5735 35.6041 21.4833L36.4935 20.4908C35.8168 19.64 35.0112 18.9698 34.096 18.48C33.1679 17.9966 32.0594 17.7517 30.7511 17.7517C29.7006 17.7517 28.7339 17.9386 27.8445 18.3059C26.9422 18.6797 26.1559 19.2147 25.4727 19.9043C24.7896 20.6003 24.2095 21.4382 23.7519 22.4242C23.2944 23.4103 22.9592 24.5124 22.7659 25.7369H20.6197V27.2257H22.5919C22.5854 27.419 22.5725 27.6124 22.5725 27.8122C22.5596 28.012 22.5596 28.2053 22.5596 28.4051C22.5596 28.5598 22.5596 28.7016 22.5596 28.8498C22.5596 29.0045 22.5596 29.1463 22.579 29.2945H20.6133V30.7768H22.6821C22.8368 32.0529 23.1268 33.2001 23.5457 34.2248C23.9711 35.2496 24.5124 36.1196 25.1698 36.835C25.6532 37.3506 26.2139 37.7502 26.8262 38.0982C27.2515 37.4022 27.6833 36.719 28.1603 36.0681C27.8187 35.8619 27.4964 35.6169 27.1871 35.2883Z" fill="#205A41"/>
</svg>
